<svg width="800" height="508" viewBox="0 0 800 508" fill="none" xmlns="http://www.w3.org/2000/svg">
<rect width="800" height="508" fill="white"/>
<path d="M81.704 162H85.544V144.816C85.544 141.552 88.616 140.064 91.688 140.064C95.48 140.064 97.544 142.272 97.544 146.784V162H101.384V146.112C101.384 140.112 97.976 136.656 92.792 136.656C88.712 136.656 86.792 138.816 85.736 141.264H85.544V126.48H81.704V162ZM132.325 162V158.496H123.493V128.496H119.077L108.133 134.688L109.717 137.76L119.461 132.144V158.496H109.861V162H132.325Z" fill="#9B51E0"/>
<path d="M187.104 168.624V165.648H177.936V161.952C177.936 159.312 178.848 158.208 179.856 156.864C180.912 155.472 182.112 154.032 182.112 152.016C182.112 149.376 180.048 147.6 176.832 147.168V146.976C180.048 146.544 182.112 144.768 182.112 142.128C182.112 140.112 180.912 138.672 179.856 137.28C178.848 135.936 177.936 134.832 177.936 132.192V128.496H187.104V125.52H178.656C176.016 125.52 174.624 127.248 174.624 129.456V132.48C174.624 135.936 176.16 137.52 177.312 138.96C178.368 140.256 178.752 141.072 178.752 142.08C178.752 144.48 176.448 145.584 172.128 145.584H168.384V148.56H172.128C176.448 148.56 178.752 149.664 178.752 152.064C178.752 153.072 178.368 153.888 177.312 155.184C176.16 156.624 174.624 158.208 174.624 161.664V164.688C174.624 166.896 176.016 168.624 178.656 168.624H187.104ZM292.869 193.424C295.461 193.424 296.421 192.176 296.421 190.544V189.68C296.421 188.048 295.461 186.8 292.869 186.8C290.277 186.8 289.317 188.048 289.317 189.68V190.544C289.317 192.176 290.277 193.424 292.869 193.424ZM292.869 212.432C295.461 212.432 296.421 211.184 296.421 209.552V208.688C296.421 207.056 295.461 205.808 292.869 205.808C290.277 205.808 289.317 207.056 289.317 208.688V209.552C289.317 211.184 290.277 212.432 292.869 212.432ZM436.775 193.424C439.367 193.424 440.327 192.176 440.327 190.544V189.68C440.327 188.048 439.367 186.8 436.775 186.8C434.183 186.8 433.223 188.048 433.223 189.68V190.544C433.223 192.176 434.183 193.424 436.775 193.424ZM432.167 218.768H435.383L440.903 205.472H434.711L432.167 218.768ZM292.869 243.424C295.461 243.424 296.421 242.176 296.421 240.544V239.68C296.421 238.048 295.461 236.8 292.869 236.8C290.277 236.8 289.317 238.048 289.317 239.68V240.544C289.317 242.176 290.277 243.424 292.869 243.424ZM292.869 262.432C295.461 262.432 296.421 261.184 296.421 259.552V258.688C296.421 257.056 295.461 255.808 292.869 255.808C290.277 255.808 289.317 257.056 289.317 258.688V259.552C289.317 261.184 290.277 262.432 292.869 262.432ZM82.04 275.52V278.496H91.208V282.192C91.208 284.832 90.296 285.936 89.288 287.28C88.232 288.672 87.032 290.112 87.032 292.128C87.032 294.768 89.096 296.544 92.312 296.976V297.168C89.096 297.6 87.032 299.376 87.032 302.016C87.032 304.032 88.232 305.472 89.288 306.864C90.296 308.208 91.208 309.312 91.208 311.952V315.648H82.04V318.624H90.488C93.128 318.624 94.52 316.896 94.52 314.688V311.664C94.52 308.208 92.984 306.624 91.832 305.184C90.776 303.888 90.392 303.072 90.392 302.064C90.392 299.664 92.696 298.56 97.016 298.56H100.76V295.584H97.016C92.696 295.584 90.392 294.48 90.392 292.08C90.392 291.072 90.776 290.256 91.832 288.96C92.984 287.52 94.52 285.936 94.52 282.48V279.456C94.52 277.248 93.128 275.52 90.488 275.52H82.04Z" fill="#4F4F4F"/>
<path d="M149.827 212.576C154.771 212.576 157.891 210.128 159.331 206.816L156.595 204.944C155.347 207.632 153.187 209.264 149.875 209.264C145.219 209.264 142.723 206.096 142.723 201.728V197.504C142.723 193.136 145.267 189.968 149.779 189.968C152.851 189.968 154.963 191.456 155.875 194L158.947 192.368C157.555 189.008 154.579 186.656 149.779 186.656C142.771 186.656 138.595 191.744 138.595 199.616C138.595 207.44 142.723 212.576 149.827 212.576ZM177.744 212.576C184.704 212.576 188.976 207.488 188.976 199.616C188.976 191.744 184.704 186.656 177.744 186.656C170.784 186.656 166.512 191.744 166.512 199.616C166.512 207.488 170.784 212.576 177.744 212.576ZM177.744 209.264C173.472 209.264 170.592 206.72 170.592 201.392V197.84C170.592 192.512 173.472 189.968 177.744 189.968C182.016 189.968 184.896 192.512 184.896 197.84V201.392C184.896 206.72 182.016 209.264 177.744 209.264ZM195.965 212H217.085V208.736H208.445V176.48H195.965V179.744H204.605V208.736H195.965V212ZM235.306 212.576C242.266 212.576 246.538 207.488 246.538 199.616C246.538 191.744 242.266 186.656 235.306 186.656C228.346 186.656 224.074 191.744 224.074 199.616C224.074 207.488 228.346 212.576 235.306 212.576ZM235.306 209.264C231.034 209.264 228.154 206.72 228.154 201.392V197.84C228.154 192.512 231.034 189.968 235.306 189.968C239.578 189.968 242.458 192.512 242.458 197.84V201.392C242.458 206.72 239.578 209.264 235.306 209.264ZM253.384 212H274.072V208.736H264.472V195.152C264.472 192.8 267.064 191.072 271.384 191.072H276.52V187.232H272.152C268.024 187.232 265.672 189.296 264.712 191.648H264.472V187.232H253.384V190.496H260.632V208.736H253.384V212ZM139.795 262H144.787L148.819 241.264H149.203L153.139 262H158.131L161.923 237.232H158.611L155.779 258.64H155.347L151.123 237.232H146.898L142.675 258.64H142.243L139.411 237.232H136.003L139.795 262ZM179.28 231.76C181.488 231.76 182.304 230.704 182.304 229.312V228.544C182.304 227.152 181.488 226.096 179.28 226.096C177.072 226.096 176.256 227.152 176.256 228.544V229.312C176.256 230.704 177.072 231.76 179.28 231.76ZM168.432 262H189.552V258.736H181.2V237.232H168.432V240.496H177.36V258.736H168.432V262ZM212.525 262H216.365V226.48H212.525V241.264H212.333C210.749 238.24 208.157 236.656 204.701 236.656C198.653 236.656 195.005 241.504 195.005 249.616C195.005 257.728 198.653 262.576 204.701 262.576C208.157 262.576 210.749 260.992 212.333 257.968H212.525V262ZM206.189 259.168C201.725 259.168 199.133 256.192 199.133 251.728V247.504C199.133 243.04 201.725 240.064 206.189 240.064C209.597 240.064 212.525 241.84 212.525 245.152V254.08C212.525 257.392 209.597 259.168 206.189 259.168ZM246.154 262V258.736H234.874V240.496H246.154V237.232H234.874V228.496H231.178V234.976C231.178 236.656 230.554 237.232 228.922 237.232H222.778V240.496H231.034V256.336C231.034 259.648 232.762 262 236.506 262H246.154ZM254.392 262H258.232V244.816C258.232 241.552 261.304 240.064 264.376 240.064C268.168 240.064 270.232 242.272 270.232 246.784V262H274.072V246.112C274.072 240.112 270.664 236.656 265.48 236.656C261.4 236.656 259.48 238.816 258.424 241.264H258.232V226.48H254.392V262Z" fill="#F2994A"/>
<path d="M339.727 212H360.415V208.736H350.815V195.152C350.815 192.8 353.407 191.072 357.727 191.072H362.863V187.232H358.495C354.367 187.232 352.015 189.296 351.055 191.648H350.815V187.232H339.727V190.496H346.975V208.736H339.727V212ZM379.645 212.576C384.541 212.576 388.093 210.176 389.581 206.864L386.749 204.944C385.453 207.632 382.957 209.264 379.645 209.264C374.989 209.264 372.061 206.096 372.061 201.728V200.576H390.397V198.752C390.397 191.744 386.077 186.656 379.405 186.656C372.685 186.656 368.029 191.744 368.029 199.664C368.029 207.488 372.541 212.576 379.645 212.576ZM379.405 189.824C383.485 189.824 386.269 192.8 386.269 197.168V197.696H372.061V197.36C372.061 193.04 375.181 189.824 379.405 189.824ZM413.994 212H417.834V176.48H413.994V191.264H413.802C412.218 188.24 409.626 186.656 406.17 186.656C400.122 186.656 396.474 191.504 396.474 199.616C396.474 207.728 400.122 212.576 406.17 212.576C409.626 212.576 412.218 210.992 413.802 207.968H413.994V212ZM407.658 209.168C403.194 209.168 400.602 206.192 400.602 201.728V197.504C400.602 193.04 403.194 190.064 407.658 190.064C411.066 190.064 413.994 191.84 413.994 195.152V204.08C413.994 207.392 411.066 209.168 407.658 209.168ZM361.807 258.496H343.615L352.975 250.336C357.439 246.448 360.463 242.704 360.463 237.616C360.463 231.952 356.719 227.92 350.047 227.92C343.471 227.92 340.447 231.856 339.151 235.792L342.751 237.136C343.807 233.68 345.871 231.424 349.951 231.424C354.079 231.424 356.239 233.728 356.239 237.76V238.336C356.239 241.744 353.887 244.864 350.623 247.792L339.439 257.872V262H361.807V258.496ZM368.509 262H389.197V258.736H379.597V245.152C379.597 242.8 382.189 241.072 386.509 241.072H391.645V237.232H387.277C383.149 237.232 380.797 239.296 379.837 241.648H379.597V237.232H368.509V240.496H375.757V258.736H368.509V262ZM408.426 262.576C413.322 262.576 416.874 260.176 418.362 256.864L415.53 254.944C414.234 257.632 411.738 259.264 408.426 259.264C403.77 259.264 400.842 256.096 400.842 251.728V250.576H419.178V248.752C419.178 241.744 414.858 236.656 408.186 236.656C401.466 236.656 396.81 241.744 396.81 249.664C396.81 257.488 401.322 262.576 408.426 262.576ZM408.186 239.824C412.266 239.824 415.05 242.8 415.05 247.168V247.696H400.842V247.36C400.842 243.04 403.962 239.824 408.186 239.824ZM428.519 262V243.808C428.519 241.168 429.959 239.824 432.023 239.824C434.279 239.824 434.999 241.216 434.999 245.44V262H438.551V243.808C438.551 241.168 439.991 239.824 442.007 239.824C444.311 239.824 445.031 241.216 445.031 245.44V262H448.583V244.816C448.583 239.584 447.527 236.656 443.495 236.656C440.567 236.656 439.031 238.288 438.119 240.544H437.975C437.687 238.24 436.295 236.656 433.463 236.656C430.727 236.656 429.479 238.192 428.711 240.112H428.519V237.232H424.967V262H428.519Z" fill="#2F80ED"/>
<path d="M68.634 47.216C67.638 47.216 66.672 47.084 65.736 46.82C64.812 46.544 64.068 46.19 63.504 45.758L64.494 43.562C65.034 43.958 65.676 44.276 66.42 44.516C67.164 44.756 67.908 44.876 68.652 44.876C69.48 44.876 70.092 44.756 70.488 44.516C70.884 44.264 71.082 43.934 71.082 43.526C71.082 43.226 70.962 42.98 70.722 42.788C70.494 42.584 70.194 42.422 69.822 42.302C69.462 42.182 68.97 42.05 68.346 41.906C67.386 41.678 66.6 41.45 65.988 41.222C65.376 40.994 64.848 40.628 64.404 40.124C63.972 39.62 63.756 38.948 63.756 38.108C63.756 37.376 63.954 36.716 64.35 36.128C64.746 35.528 65.34 35.054 66.132 34.706C66.936 34.358 67.914 34.184 69.066 34.184C69.87 34.184 70.656 34.28 71.424 34.472C72.192 34.664 72.864 34.94 73.44 35.3L72.54 37.514C71.376 36.854 70.212 36.524 69.048 36.524C68.232 36.524 67.626 36.656 67.23 36.92C66.846 37.184 66.654 37.532 66.654 37.964C66.654 38.396 66.876 38.72 67.32 38.936C67.776 39.14 68.466 39.344 69.39 39.548C70.35 39.776 71.136 40.004 71.748 40.232C72.36 40.46 72.882 40.82 73.314 41.312C73.758 41.804 73.98 42.47 73.98 43.31C73.98 44.03 73.776 44.69 73.368 45.29C72.972 45.878 72.372 46.346 71.568 46.694C70.764 47.042 69.786 47.216 68.634 47.216ZM85.2605 42.194C85.2605 42.23 85.2425 42.482 85.2065 42.95H77.8805C78.0125 43.55 78.3245 44.024 78.8165 44.372C79.3085 44.72 79.9205 44.894 80.6525 44.894C81.1565 44.894 81.6005 44.822 81.9845 44.678C82.3805 44.522 82.7465 44.282 83.0825 43.958L84.5765 45.578C83.6645 46.622 82.3325 47.144 80.5805 47.144C79.4885 47.144 78.5225 46.934 77.6825 46.514C76.8425 46.082 76.1945 45.488 75.7385 44.732C75.2825 43.976 75.0545 43.118 75.0545 42.158C75.0545 41.21 75.2765 40.358 75.7205 39.602C76.1765 38.834 76.7945 38.24 77.5745 37.82C78.3665 37.388 79.2485 37.172 80.2205 37.172C81.1685 37.172 82.0265 37.376 82.7945 37.784C83.5625 38.192 84.1625 38.78 84.5945 39.548C85.0385 40.304 85.2605 41.186 85.2605 42.194ZM80.2385 39.296C79.6025 39.296 79.0685 39.476 78.6365 39.836C78.2045 40.196 77.9405 40.688 77.8445 41.312H82.6145C82.5185 40.7 82.2545 40.214 81.8225 39.854C81.3905 39.482 80.8625 39.296 80.2385 39.296ZM80.9585 33.482H83.9825L80.7245 36.074H78.5285L80.9585 33.482ZM87.13 33.644H89.938V47H87.13V33.644ZM102.03 42.194C102.03 42.23 102.012 42.482 101.976 42.95H94.65C94.782 43.55 95.094 44.024 95.586 44.372C96.078 44.72 96.69 44.894 97.422 44.894C97.926 44.894 98.37 44.822 98.754 44.678C99.15 44.522 99.516 44.282 99.852 43.958L101.346 45.578C100.434 46.622 99.102 47.144 97.35 47.144C96.258 47.144 95.292 46.934 94.452 46.514C93.612 46.082 92.964 45.488 92.508 44.732C92.052 43.976 91.824 43.118 91.824 42.158C91.824 41.21 92.046 40.358 92.49 39.602C92.946 38.834 93.564 38.24 94.344 37.82C95.136 37.388 96.018 37.172 96.99 37.172C97.938 37.172 98.796 37.376 99.564 37.784C100.332 38.192 100.932 38.78 101.364 39.548C101.808 40.304 102.03 41.186 102.03 42.194ZM97.008 39.296C96.372 39.296 95.838 39.476 95.406 39.836C94.974 40.196 94.71 40.688 94.614 41.312H99.384C99.288 40.7 99.024 40.214 98.592 39.854C98.16 39.482 97.632 39.296 97.008 39.296ZM108.58 47.144C107.548 47.144 106.618 46.934 105.79 46.514C104.974 46.082 104.332 45.488 103.864 44.732C103.408 43.976 103.18 43.118 103.18 42.158C103.18 41.198 103.408 40.34 103.864 39.584C104.332 38.828 104.974 38.24 105.79 37.82C106.618 37.388 107.548 37.172 108.58 37.172C109.6 37.172 110.488 37.388 111.244 37.82C112.012 38.24 112.57 38.846 112.918 39.638L110.74 40.808C110.236 39.92 109.51 39.476 108.562 39.476C107.83 39.476 107.224 39.716 106.744 40.196C106.264 40.676 106.024 41.33 106.024 42.158C106.024 42.986 106.264 43.64 106.744 44.12C107.224 44.6 107.83 44.84 108.562 44.84C109.522 44.84 110.248 44.396 110.74 43.508L112.918 44.696C112.57 45.464 112.012 46.064 111.244 46.496C110.488 46.928 109.6 47.144 108.58 47.144ZM120.921 46.532C120.645 46.736 120.303 46.892 119.895 47C119.499 47.096 119.079 47.144 118.635 47.144C117.483 47.144 116.589 46.85 115.953 46.262C115.329 45.674 115.017 44.81 115.017 43.67V39.692H113.523V37.532H115.017V35.174H117.825V37.532H120.237V39.692H117.825V43.634C117.825 44.042 117.927 44.36 118.131 44.588C118.347 44.804 118.647 44.912 119.031 44.912C119.475 44.912 119.853 44.792 120.165 44.552L120.921 46.532ZM131.684 42.194C131.684 42.23 131.666 42.482 131.63 42.95H124.304C124.436 43.55 124.748 44.024 125.24 44.372C125.732 44.72 126.344 44.894 127.076 44.894C127.58 44.894 128.024 44.822 128.408 44.678C128.804 44.522 129.17 44.282 129.506 43.958L131 45.578C130.088 46.622 128.756 47.144 127.004 47.144C125.912 47.144 124.946 46.934 124.106 46.514C123.266 46.082 122.618 45.488 122.162 44.732C121.706 43.976 121.478 43.118 121.478 42.158C121.478 41.21 121.7 40.358 122.144 39.602C122.6 38.834 123.218 38.24 123.998 37.82C124.79 37.388 125.672 37.172 126.644 37.172C127.592 37.172 128.45 37.376 129.218 37.784C129.986 38.192 130.586 38.78 131.018 39.548C131.462 40.304 131.684 41.186 131.684 42.194ZM126.662 39.296C126.026 39.296 125.492 39.476 125.06 39.836C124.628 40.196 124.364 40.688 124.268 41.312H129.038C128.942 40.7 128.678 40.214 128.246 39.854C127.814 39.482 127.286 39.296 126.662 39.296ZM143.31 37.316V47H140.646V45.848C140.274 46.268 139.83 46.592 139.314 46.82C138.798 47.036 138.24 47.144 137.64 47.144C136.368 47.144 135.36 46.778 134.616 46.046C133.872 45.314 133.5 44.228 133.5 42.788V37.316H136.308V42.374C136.308 43.934 136.962 44.714 138.27 44.714C138.942 44.714 139.482 44.498 139.89 44.066C140.298 43.622 140.502 42.968 140.502 42.104V37.316H143.31ZM148.593 38.594C148.929 38.126 149.379 37.772 149.943 37.532C150.519 37.292 151.179 37.172 151.923 37.172V39.764C151.611 39.74 151.401 39.728 151.293 39.728C150.489 39.728 149.859 39.956 149.403 40.412C148.947 40.856 148.719 41.528 148.719 42.428V47H145.911V37.316H148.593V38.594Z" fill="#828282"/>
<rect x="40" y="23" width="136" height="36" rx="3" stroke="#828282" stroke-width="2"/>
<path fill-rule="evenodd" clip-rule="evenodd" d="M108 109L73 109L73 111L142 111L142 109L110 109L110 60L108 60L108 109Z" fill="#828282"/>
<path d="M586.746 211.448C587.466 211.676 588.03 212.06 588.438 212.6C588.846 213.128 589.05 213.782 589.05 214.562C589.05 215.666 588.618 216.518 587.754 217.118C586.902 217.706 585.654 218 584.01 218H577.494V205.4H583.65C585.186 205.4 586.362 205.694 587.178 206.282C588.006 206.87 588.42 207.668 588.42 208.676C588.42 209.288 588.27 209.834 587.97 210.314C587.682 210.794 587.274 211.172 586.746 211.448ZM580.392 207.596V210.566H583.29C584.01 210.566 584.556 210.44 584.928 210.188C585.3 209.936 585.486 209.564 585.486 209.072C585.486 208.58 585.3 208.214 584.928 207.974C584.556 207.722 584.01 207.596 583.29 207.596H580.392ZM583.794 215.804C584.562 215.804 585.138 215.678 585.522 215.426C585.918 215.174 586.116 214.784 586.116 214.256C586.116 213.212 585.342 212.69 583.794 212.69H580.392V215.804H583.794ZM591.06 204.644H593.868V218H591.06V204.644ZM601.082 218.144C600.062 218.144 599.144 217.934 598.328 217.514C597.524 217.082 596.894 216.488 596.438 215.732C595.982 214.976 595.754 214.118 595.754 213.158C595.754 212.198 595.982 211.34 596.438 210.584C596.894 209.828 597.524 209.24 598.328 208.82C599.144 208.388 600.062 208.172 601.082 208.172C602.102 208.172 603.014 208.388 603.818 208.82C604.622 209.24 605.252 209.828 605.708 210.584C606.164 211.34 606.392 212.198 606.392 213.158C606.392 214.118 606.164 214.976 605.708 215.732C605.252 216.488 604.622 217.082 603.818 217.514C603.014 217.934 602.102 218.144 601.082 218.144ZM601.082 215.84C601.802 215.84 602.39 215.6 602.846 215.12C603.314 214.628 603.548 213.974 603.548 213.158C603.548 212.342 603.314 211.694 602.846 211.214C602.39 210.722 601.802 210.476 601.082 210.476C600.362 210.476 599.768 210.722 599.3 211.214C598.832 211.694 598.598 212.342 598.598 213.158C598.598 213.974 598.832 214.628 599.3 215.12C599.768 215.6 600.362 215.84 601.082 215.84ZM612.949 218.144C611.917 218.144 610.987 217.934 610.159 217.514C609.343 217.082 608.701 216.488 608.233 215.732C607.777 214.976 607.549 214.118 607.549 213.158C607.549 212.198 607.777 211.34 608.233 210.584C608.701 209.828 609.343 209.24 610.159 208.82C610.987 208.388 611.917 208.172 612.949 208.172C613.969 208.172 614.857 208.388 615.613 208.82C616.381 209.24 616.939 209.846 617.287 210.638L615.109 211.808C614.605 210.92 613.879 210.476 612.931 210.476C612.199 210.476 611.593 210.716 611.113 211.196C610.633 211.676 610.393 212.33 610.393 213.158C610.393 213.986 610.633 214.64 611.113 215.12C611.593 215.6 612.199 215.84 612.931 215.84C613.891 215.84 614.617 215.396 615.109 214.508L617.287 215.696C616.939 216.464 616.381 217.064 615.613 217.496C614.857 217.928 613.969 218.144 612.949 218.144ZM587.16 226.644V240H584.478V238.884C583.782 239.724 582.774 240.144 581.454 240.144C580.542 240.144 579.714 239.94 578.97 239.532C578.238 239.124 577.662 238.542 577.242 237.786C576.822 237.03 576.612 236.154 576.612 235.158C576.612 234.162 576.822 233.286 577.242 232.53C577.662 231.774 578.238 231.192 578.97 230.784C579.714 230.376 580.542 230.172 581.454 230.172C582.69 230.172 583.656 230.562 584.352 231.342V226.644H587.16ZM581.94 237.84C582.648 237.84 583.236 237.6 583.704 237.12C584.172 236.628 584.406 235.974 584.406 235.158C584.406 234.342 584.172 233.694 583.704 233.214C583.236 232.722 582.648 232.476 581.94 232.476C581.22 232.476 580.626 232.722 580.158 233.214C579.69 233.694 579.456 234.342 579.456 235.158C579.456 235.974 579.69 236.628 580.158 237.12C580.626 237.6 581.22 237.84 581.94 237.84ZM599.245 235.194C599.245 235.23 599.227 235.482 599.191 235.95H591.865C591.997 236.55 592.309 237.024 592.801 237.372C593.293 237.72 593.905 237.894 594.637 237.894C595.141 237.894 595.585 237.822 595.969 237.678C596.365 237.522 596.731 237.282 597.067 236.958L598.561 238.578C597.649 239.622 596.317 240.144 594.565 240.144C593.473 240.144 592.507 239.934 591.667 239.514C590.827 239.082 590.179 238.488 589.723 237.732C589.267 236.976 589.039 236.118 589.039 235.158C589.039 234.21 589.261 233.358 589.705 232.602C590.161 231.834 590.779 231.24 591.559 230.82C592.351 230.388 593.233 230.172 594.205 230.172C595.153 230.172 596.011 230.376 596.779 230.784C597.547 231.192 598.147 231.78 598.579 232.548C599.023 233.304 599.245 234.186 599.245 235.194ZM594.223 232.296C593.587 232.296 593.053 232.476 592.621 232.836C592.189 233.196 591.925 233.688 591.829 234.312H596.599C596.503 233.7 596.239 233.214 595.807 232.854C595.375 232.482 594.847 232.296 594.223 232.296ZM616.076 226.644V240H613.394V238.884C612.698 239.724 611.69 240.144 610.37 240.144C609.458 240.144 608.63 239.94 607.886 239.532C607.154 239.124 606.578 238.542 606.158 237.786C605.738 237.03 605.528 236.154 605.528 235.158C605.528 234.162 605.738 233.286 606.158 232.53C606.578 231.774 607.154 231.192 607.886 230.784C608.63 230.376 609.458 230.172 610.37 230.172C611.606 230.172 612.572 230.562 613.268 231.342V226.644H616.076ZM610.856 237.84C611.564 237.84 612.152 237.6 612.62 237.12C613.088 236.628 613.322 235.974 613.322 235.158C613.322 234.342 613.088 233.694 612.62 233.214C612.152 232.722 611.564 232.476 610.856 232.476C610.136 232.476 609.542 232.722 609.074 233.214C608.606 233.694 608.372 234.342 608.372 235.158C608.372 235.974 608.606 236.628 609.074 237.12C609.542 237.6 610.136 237.84 610.856 237.84ZM628.161 235.194C628.161 235.23 628.143 235.482 628.107 235.95H620.781C620.913 236.55 621.225 237.024 621.717 237.372C622.209 237.72 622.821 237.894 623.553 237.894C624.057 237.894 624.501 237.822 624.885 237.678C625.281 237.522 625.647 237.282 625.983 236.958L627.477 238.578C626.565 239.622 625.233 240.144 623.481 240.144C622.389 240.144 621.423 239.934 620.583 239.514C619.743 239.082 619.095 238.488 618.639 237.732C618.183 236.976 617.955 236.118 617.955 235.158C617.955 234.21 618.177 233.358 618.621 232.602C619.077 231.834 619.695 231.24 620.475 230.82C621.267 230.388 622.149 230.172 623.121 230.172C624.069 230.172 624.927 230.376 625.695 230.784C626.463 231.192 627.063 231.78 627.495 232.548C627.939 233.304 628.161 234.186 628.161 235.194ZM623.139 232.296C622.503 232.296 621.969 232.476 621.537 232.836C621.105 233.196 620.841 233.688 620.745 234.312H625.515C625.419 233.7 625.155 233.214 624.723 232.854C624.291 232.482 623.763 232.296 623.139 232.296ZM623.859 226.482H626.883L623.625 229.074H621.429L623.859 226.482ZM634.71 240.144C633.678 240.144 632.748 239.934 631.92 239.514C631.104 239.082 630.462 238.488 629.994 237.732C629.538 236.976 629.31 236.118 629.31 235.158C629.31 234.198 629.538 233.34 629.994 232.584C630.462 231.828 631.104 231.24 631.92 230.82C632.748 230.388 633.678 230.172 634.71 230.172C635.73 230.172 636.618 230.388 637.374 230.82C638.142 231.24 638.7 231.846 639.048 232.638L636.87 233.808C636.366 232.92 635.64 232.476 634.692 232.476C633.96 232.476 633.354 232.716 632.874 233.196C632.394 233.676 632.154 234.33 632.154 235.158C632.154 235.986 632.394 236.64 632.874 237.12C633.354 237.6 633.96 237.84 634.692 237.84C635.652 237.84 636.378 237.396 636.87 236.508L639.048 237.696C638.7 238.464 638.142 239.064 637.374 239.496C636.618 239.928 635.73 240.144 634.71 240.144ZM640.595 226.644H643.403V240H640.595V226.644ZM649.915 230.172C651.415 230.172 652.567 230.532 653.371 231.252C654.175 231.96 654.577 233.034 654.577 234.474V240H651.949V238.794C651.421 239.694 650.437 240.144 648.997 240.144C648.253 240.144 647.605 240.018 647.053 239.766C646.513 239.514 646.099 239.166 645.811 238.722C645.523 238.278 645.379 237.774 645.379 237.21C645.379 236.31 645.715 235.602 646.387 235.086C647.071 234.57 648.121 234.312 649.537 234.312H651.769C651.769 233.7 651.583 233.232 651.211 232.908C650.839 232.572 650.281 232.404 649.537 232.404C649.021 232.404 648.511 232.488 648.007 232.656C647.515 232.812 647.095 233.028 646.747 233.304L645.739 231.342C646.267 230.97 646.897 230.682 647.629 230.478C648.373 230.274 649.135 230.172 649.915 230.172ZM649.699 238.254C650.179 238.254 650.605 238.146 650.977 237.93C651.349 237.702 651.613 237.372 651.769 236.94V235.95H649.843C648.691 235.95 648.115 236.328 648.115 237.084C648.115 237.444 648.253 237.732 648.529 237.948C648.817 238.152 649.207 238.254 649.699 238.254ZM659.8 231.594C660.136 231.126 660.586 230.772 661.15 230.532C661.726 230.292 662.386 230.172 663.13 230.172V232.764C662.818 232.74 662.608 232.728 662.5 232.728C661.696 232.728 661.066 232.956 660.61 233.412C660.154 233.856 659.926 234.528 659.926 235.428V240H657.118V230.316H659.8V231.594ZM668.653 230.172C670.153 230.172 671.305 230.532 672.109 231.252C672.913 231.96 673.315 233.034 673.315 234.474V240H670.687V238.794C670.159 239.694 669.175 240.144 667.735 240.144C666.991 240.144 666.343 240.018 665.791 239.766C665.251 239.514 664.837 239.166 664.549 238.722C664.261 238.278 664.117 237.774 664.117 237.21C664.117 236.31 664.453 235.602 665.125 235.086C665.809 234.57 666.859 234.312 668.275 234.312H670.507C670.507 233.7 670.321 233.232 669.949 232.908C669.577 232.572 669.019 232.404 668.275 232.404C667.759 232.404 667.249 232.488 666.745 232.656C666.253 232.812 665.833 233.028 665.485 233.304L664.477 231.342C665.005 230.97 665.635 230.682 666.367 230.478C667.111 230.274 667.873 230.172 668.653 230.172ZM668.437 238.254C668.917 238.254 669.343 238.146 669.715 237.93C670.087 237.702 670.351 237.372 670.507 236.94V235.95H668.581C667.429 235.95 666.853 236.328 666.853 237.084C666.853 237.444 666.991 237.732 667.267 237.948C667.555 238.152 667.945 238.254 668.437 238.254ZM682.103 239.532C681.827 239.736 681.485 239.892 681.077 240C680.681 240.096 680.261 240.144 679.817 240.144C678.665 240.144 677.771 239.85 677.135 239.262C676.511 238.674 676.199 237.81 676.199 236.67V232.692H674.705V230.532H676.199V228.174H679.007V230.532H681.419V232.692H679.007V236.634C679.007 237.042 679.109 237.36 679.313 237.588C679.529 237.804 679.829 237.912 680.213 237.912C680.657 237.912 681.035 237.792 681.347 237.552L682.103 239.532ZM683.679 230.316H686.487V240H683.679V230.316ZM685.083 228.966C684.567 228.966 684.147 228.816 683.823 228.516C683.499 228.216 683.337 227.844 683.337 227.4C683.337 226.956 683.499 226.584 683.823 226.284C684.147 225.984 684.567 225.834 685.083 225.834C685.599 225.834 686.019 225.978 686.343 226.266C686.667 226.554 686.829 226.914 686.829 227.346C686.829 227.814 686.667 228.204 686.343 228.516C686.019 228.816 685.599 228.966 685.083 228.966ZM693.701 240.144C692.681 240.144 691.763 239.934 690.947 239.514C690.143 239.082 689.513 238.488 689.057 237.732C688.601 236.976 688.373 236.118 688.373 235.158C688.373 234.198 688.601 233.34 689.057 232.584C689.513 231.828 690.143 231.24 690.947 230.82C691.763 230.388 692.681 230.172 693.701 230.172C694.721 230.172 695.633 230.388 696.437 230.82C697.241 231.24 697.871 231.828 698.327 232.584C698.783 233.34 699.011 234.198 699.011 235.158C699.011 236.118 698.783 236.976 698.327 237.732C697.871 238.488 697.241 239.082 696.437 239.514C695.633 239.934 694.721 240.144 693.701 240.144ZM693.701 237.84C694.421 237.84 695.009 237.6 695.465 237.12C695.933 236.628 696.167 235.974 696.167 235.158C696.167 234.342 695.933 233.694 695.465 233.214C695.009 232.722 694.421 232.476 693.701 232.476C692.981 232.476 692.387 232.722 691.919 233.214C691.451 233.694 691.217 234.342 691.217 235.158C691.217 235.974 691.451 236.628 691.919 237.12C692.387 237.6 692.981 237.84 693.701 237.84ZM706.774 230.172C707.974 230.172 708.94 230.532 709.672 231.252C710.416 231.972 710.788 233.04 710.788 234.456V240H707.98V234.888C707.98 234.12 707.812 233.55 707.476 233.178C707.14 232.794 706.654 232.602 706.018 232.602C705.31 232.602 704.746 232.824 704.326 233.268C703.906 233.7 703.696 234.348 703.696 235.212V240H700.888V230.316H703.57V231.45C703.942 231.042 704.404 230.73 704.956 230.514C705.508 230.286 706.114 230.172 706.774 230.172ZM716.591 240.144C715.787 240.144 715.001 240.048 714.233 239.856C713.465 239.652 712.853 239.4 712.397 239.1L713.333 237.084C713.765 237.36 714.287 237.588 714.899 237.768C715.511 237.936 716.111 238.02 716.699 238.02C717.887 238.02 718.481 237.726 718.481 237.138C718.481 236.862 718.319 236.664 717.995 236.544C717.671 236.424 717.173 236.322 716.501 236.238C715.709 236.118 715.055 235.98 714.539 235.824C714.023 235.668 713.573 235.392 713.189 234.996C712.817 234.6 712.631 234.036 712.631 233.304C712.631 232.692 712.805 232.152 713.153 231.684C713.513 231.204 714.029 230.832 714.701 230.568C715.385 230.304 716.189 230.172 717.113 230.172C717.797 230.172 718.475 230.25 719.147 230.406C719.831 230.55 720.395 230.754 720.839 231.018L719.903 233.016C719.051 232.536 718.121 232.296 717.113 232.296C716.513 232.296 716.063 232.38 715.763 232.548C715.463 232.716 715.313 232.932 715.313 233.196C715.313 233.496 715.475 233.706 715.799 233.826C716.123 233.946 716.639 234.06 717.347 234.168C718.139 234.3 718.787 234.444 719.291 234.6C719.795 234.744 720.233 235.014 720.605 235.41C720.977 235.806 721.163 236.358 721.163 237.066C721.163 237.666 720.983 238.2 720.623 238.668C720.263 239.136 719.735 239.502 719.039 239.766C718.355 240.018 717.539 240.144 716.591 240.144Z" fill="#828282"/>
<rect x="553" y="194" width="192" height="58" rx="3" stroke="#828282" stroke-width="2"/>
<path fill-rule="evenodd" clip-rule="evenodd" d="M485 270L501 270L501 175L485 175L485 173L501 173L503 173L503 175L503 223L552 223L552 225L503 225L503 270L503 272L485 272L485 270Z" fill="#828282"/>
<path d="M373.608 341.4L368.154 354H365.274L359.838 341.4H362.988L366.822 350.4L370.71 341.4H373.608ZM377.647 344.172C379.147 344.172 380.299 344.532 381.103 345.252C381.907 345.96 382.309 347.034 382.309 348.474V354H379.681V352.794C379.153 353.694 378.169 354.144 376.729 354.144C375.985 354.144 375.337 354.018 374.785 353.766C374.245 353.514 373.831 353.166 373.543 352.722C373.255 352.278 373.111 351.774 373.111 351.21C373.111 350.31 373.447 349.602 374.119 349.086C374.803 348.57 375.853 348.312 377.269 348.312H379.501C379.501 347.7 379.315 347.232 378.943 346.908C378.571 346.572 378.013 346.404 377.269 346.404C376.753 346.404 376.243 346.488 375.739 346.656C375.247 346.812 374.827 347.028 374.479 347.304L373.471 345.342C373.999 344.97 374.629 344.682 375.361 344.478C376.105 344.274 376.867 344.172 377.647 344.172ZM377.431 352.254C377.911 352.254 378.337 352.146 378.709 351.93C379.081 351.702 379.345 351.372 379.501 350.94V349.95H377.575C376.423 349.95 375.847 350.328 375.847 351.084C375.847 351.444 375.985 351.732 376.261 351.948C376.549 352.152 376.939 352.254 377.431 352.254ZM384.851 340.644H387.659V354H384.851V340.644ZM399.751 349.194C399.751 349.23 399.733 349.482 399.697 349.95H392.371C392.503 350.55 392.815 351.024 393.307 351.372C393.799 351.72 394.411 351.894 395.143 351.894C395.647 351.894 396.091 351.822 396.475 351.678C396.871 351.522 397.237 351.282 397.573 350.958L399.067 352.578C398.155 353.622 396.823 354.144 395.071 354.144C393.979 354.144 393.013 353.934 392.173 353.514C391.333 353.082 390.685 352.488 390.229 351.732C389.773 350.976 389.545 350.118 389.545 349.158C389.545 348.21 389.767 347.358 390.211 346.602C390.667 345.834 391.285 345.24 392.065 344.82C392.857 344.388 393.739 344.172 394.711 344.172C395.659 344.172 396.517 344.376 397.285 344.784C398.053 345.192 398.653 345.78 399.085 346.548C399.529 347.304 399.751 348.186 399.751 349.194ZM394.729 346.296C394.093 346.296 393.559 346.476 393.127 346.836C392.695 347.196 392.431 347.688 392.335 348.312H397.105C397.009 347.7 396.745 347.214 396.313 346.854C395.881 346.482 395.353 346.296 394.729 346.296ZM411.376 344.316V354H408.712V352.848C408.34 353.268 407.896 353.592 407.38 353.82C406.864 354.036 406.306 354.144 405.706 354.144C404.434 354.144 403.426 353.778 402.682 353.046C401.938 352.314 401.566 351.228 401.566 349.788V344.316H404.374V349.374C404.374 350.934 405.028 351.714 406.336 351.714C407.008 351.714 407.548 351.498 407.956 351.066C408.364 350.622 408.568 349.968 408.568 349.104V344.316H411.376ZM416.66 345.594C416.996 345.126 417.446 344.772 418.01 344.532C418.586 344.292 419.246 344.172 419.99 344.172V346.764C419.678 346.74 419.468 346.728 419.36 346.728C418.556 346.728 417.926 346.956 417.47 347.412C417.014 347.856 416.786 348.528 416.786 349.428V354H413.978V344.316H416.66V345.594Z" fill="#828282"/>
<rect x="337" y="330" width="107" height="36" rx="3" stroke="#828282" stroke-width="2"/>
<path fill-rule="evenodd" clip-rule="evenodd" d="M334 283L334 285L452 285L452 283L334 283ZM393 329L393 285L391 285L391 329L393 329Z" fill="#828282"/>
<path d="M171.948 341.4C173.064 341.4 174.03 341.586 174.846 341.958C175.674 342.33 176.31 342.858 176.754 343.542C177.198 344.226 177.42 345.036 177.42 345.972C177.42 346.896 177.198 347.706 176.754 348.402C176.31 349.086 175.674 349.614 174.846 349.986C174.03 350.346 173.064 350.526 171.948 350.526H169.41V354H166.494V341.4H171.948ZM171.786 348.15C172.662 348.15 173.328 347.964 173.784 347.592C174.24 347.208 174.468 346.668 174.468 345.972C174.468 345.264 174.24 344.724 173.784 344.352C173.328 343.968 172.662 343.776 171.786 343.776H169.41V348.15H171.786ZM181.986 345.594C182.322 345.126 182.772 344.772 183.336 344.532C183.912 344.292 184.572 344.172 185.316 344.172V346.764C185.004 346.74 184.794 346.728 184.686 346.728C183.882 346.728 183.252 346.956 182.796 347.412C182.34 347.856 182.112 348.528 182.112 349.428V354H179.304V344.316H181.986V345.594ZM191.506 354.144C190.486 354.144 189.568 353.934 188.752 353.514C187.948 353.082 187.318 352.488 186.862 351.732C186.406 350.976 186.178 350.118 186.178 349.158C186.178 348.198 186.406 347.34 186.862 346.584C187.318 345.828 187.948 345.24 188.752 344.82C189.568 344.388 190.486 344.172 191.506 344.172C192.526 344.172 193.438 344.388 194.242 344.82C195.046 345.24 195.676 345.828 196.132 346.584C196.588 347.34 196.816 348.198 196.816 349.158C196.816 350.118 196.588 350.976 196.132 351.732C195.676 352.488 195.046 353.082 194.242 353.514C193.438 353.934 192.526 354.144 191.506 354.144ZM191.506 351.84C192.226 351.84 192.814 351.6 193.27 351.12C193.738 350.628 193.972 349.974 193.972 349.158C193.972 348.342 193.738 347.694 193.27 347.214C192.814 346.722 192.226 346.476 191.506 346.476C190.786 346.476 190.192 346.722 189.724 347.214C189.256 347.694 189.022 348.342 189.022 349.158C189.022 349.974 189.256 350.628 189.724 351.12C190.192 351.6 190.786 351.84 191.506 351.84ZM204.416 344.172C205.316 344.172 206.132 344.382 206.864 344.802C207.608 345.21 208.19 345.792 208.61 346.548C209.03 347.292 209.24 348.162 209.24 349.158C209.24 350.154 209.03 351.03 208.61 351.786C208.19 352.53 207.608 353.112 206.864 353.532C206.132 353.94 205.316 354.144 204.416 354.144C203.18 354.144 202.208 353.754 201.5 352.974V357.492H198.692V344.316H201.374V345.432C202.07 344.592 203.084 344.172 204.416 344.172ZM203.93 351.84C204.65 351.84 205.238 351.6 205.694 351.12C206.162 350.628 206.396 349.974 206.396 349.158C206.396 348.342 206.162 347.694 205.694 347.214C205.238 346.722 204.65 346.476 203.93 346.476C203.21 346.476 202.616 346.722 202.148 347.214C201.692 347.694 201.464 348.342 201.464 349.158C201.464 349.974 201.692 350.628 202.148 351.12C202.616 351.6 203.21 351.84 203.93 351.84ZM213.802 345.594C214.138 345.126 214.588 344.772 215.152 344.532C215.728 344.292 216.388 344.172 217.132 344.172V346.764C216.82 346.74 216.61 346.728 216.502 346.728C215.698 346.728 215.068 346.956 214.612 347.412C214.156 347.856 213.928 348.528 213.928 349.428V354H211.12V344.316H213.802V345.594ZM218.802 344.316H221.61V354H218.802V344.316ZM220.206 342.966C219.69 342.966 219.27 342.816 218.946 342.516C218.622 342.216 218.46 341.844 218.46 341.4C218.46 340.956 218.622 340.584 218.946 340.284C219.27 339.984 219.69 339.834 220.206 339.834C220.722 339.834 221.142 339.978 221.466 340.266C221.79 340.554 221.952 340.914 221.952 341.346C221.952 341.814 221.79 342.204 221.466 342.516C221.142 342.816 220.722 342.966 220.206 342.966ZM233.702 349.194C233.702 349.23 233.684 349.482 233.648 349.95H226.322C226.454 350.55 226.766 351.024 227.258 351.372C227.75 351.72 228.362 351.894 229.094 351.894C229.598 351.894 230.042 351.822 230.426 351.678C230.822 351.522 231.188 351.282 231.524 350.958L233.018 352.578C232.106 353.622 230.774 354.144 229.022 354.144C227.93 354.144 226.964 353.934 226.124 353.514C225.284 353.082 224.636 352.488 224.18 351.732C223.724 350.976 223.496 350.118 223.496 349.158C223.496 348.21 223.718 347.358 224.162 346.602C224.618 345.834 225.236 345.24 226.016 344.82C226.808 344.388 227.69 344.172 228.662 344.172C229.61 344.172 230.468 344.376 231.236 344.784C232.004 345.192 232.604 345.78 233.036 346.548C233.48 347.304 233.702 348.186 233.702 349.194ZM228.68 346.296C228.044 346.296 227.51 346.476 227.078 346.836C226.646 347.196 226.382 347.688 226.286 348.312H231.056C230.96 347.7 230.696 347.214 230.264 346.854C229.832 346.482 229.304 346.296 228.68 346.296ZM229.4 340.482H232.424L229.166 343.074H226.97L229.4 340.482ZM241.817 353.532C241.541 353.736 241.199 353.892 240.791 354C240.395 354.096 239.975 354.144 239.531 354.144C238.379 354.144 237.485 353.85 236.849 353.262C236.225 352.674 235.913 351.81 235.913 350.67V346.692H234.419V344.532H235.913V342.174H238.721V344.532H241.133V346.692H238.721V350.634C238.721 351.042 238.823 351.36 239.027 351.588C239.243 351.804 239.543 351.912 239.927 351.912C240.371 351.912 240.749 351.792 241.061 351.552L241.817 353.532ZM252.581 349.194C252.581 349.23 252.563 349.482 252.527 349.95H245.201C245.333 350.55 245.645 351.024 246.137 351.372C246.629 351.72 247.241 351.894 247.973 351.894C248.477 351.894 248.921 351.822 249.305 351.678C249.701 351.522 250.067 351.282 250.403 350.958L251.897 352.578C250.985 353.622 249.653 354.144 247.901 354.144C246.809 354.144 245.843 353.934 245.003 353.514C244.163 353.082 243.515 352.488 243.059 351.732C242.603 350.976 242.375 350.118 242.375 349.158C242.375 348.21 242.597 347.358 243.041 346.602C243.497 345.834 244.115 345.24 244.895 344.82C245.687 344.388 246.569 344.172 247.541 344.172C248.489 344.172 249.347 344.376 250.115 344.784C250.883 345.192 251.483 345.78 251.915 346.548C252.359 347.304 252.581 348.186 252.581 349.194ZM247.559 346.296C246.923 346.296 246.389 346.476 245.957 346.836C245.525 347.196 245.261 347.688 245.165 348.312H249.935C249.839 347.7 249.575 347.214 249.143 346.854C248.711 346.482 248.183 346.296 247.559 346.296ZM248.279 340.482H251.303L248.045 343.074H245.849L248.279 340.482Z" fill="#828282"/>
<rect x="142" y="330" width="135" height="36" rx="3" stroke="#828282" stroke-width="2"/>
<path fill-rule="evenodd" clip-rule="evenodd" d="M209 285L274 285L274 283L145 283L145 285L207 285L207 329L209 329L209 285Z" fill="#828282"/>
<path d="M242.494 452.4H248.218C249.586 452.4 250.792 452.664 251.836 453.192C252.892 453.708 253.708 454.44 254.284 455.388C254.872 456.336 255.166 457.44 255.166 458.7C255.166 459.96 254.872 461.064 254.284 462.012C253.708 462.96 252.892 463.698 251.836 464.226C250.792 464.742 249.586 465 248.218 465H242.494V452.4ZM248.074 462.606C249.334 462.606 250.336 462.258 251.08 461.562C251.836 460.854 252.214 459.9 252.214 458.7C252.214 457.5 251.836 456.552 251.08 455.856C250.336 455.148 249.334 454.794 248.074 454.794H245.41V462.606H248.074ZM266.653 460.194C266.653 460.23 266.635 460.482 266.599 460.95H259.273C259.405 461.55 259.717 462.024 260.209 462.372C260.701 462.72 261.313 462.894 262.045 462.894C262.549 462.894 262.993 462.822 263.377 462.678C263.773 462.522 264.139 462.282 264.475 461.958L265.969 463.578C265.057 464.622 263.725 465.144 261.973 465.144C260.881 465.144 259.915 464.934 259.075 464.514C258.235 464.082 257.587 463.488 257.131 462.732C256.675 461.976 256.447 461.118 256.447 460.158C256.447 459.21 256.669 458.358 257.113 457.602C257.569 456.834 258.187 456.24 258.967 455.82C259.759 455.388 260.641 455.172 261.613 455.172C262.561 455.172 263.419 455.376 264.187 455.784C264.955 456.192 265.555 456.78 265.987 457.548C266.431 458.304 266.653 459.186 266.653 460.194ZM261.631 457.296C260.995 457.296 260.461 457.476 260.029 457.836C259.597 458.196 259.333 458.688 259.237 459.312H264.007C263.911 458.7 263.647 458.214 263.215 457.854C262.783 457.482 262.255 457.296 261.631 457.296ZM262.351 451.482H265.375L262.117 454.074H259.921L262.351 451.482ZM273.203 465.144C272.171 465.144 271.241 464.934 270.413 464.514C269.597 464.082 268.955 463.488 268.487 462.732C268.031 461.976 267.803 461.118 267.803 460.158C267.803 459.198 268.031 458.34 268.487 457.584C268.955 456.828 269.597 456.24 270.413 455.82C271.241 455.388 272.171 455.172 273.203 455.172C274.223 455.172 275.111 455.388 275.867 455.82C276.635 456.24 277.193 456.846 277.541 457.638L275.363 458.808C274.859 457.92 274.133 457.476 273.185 457.476C272.453 457.476 271.847 457.716 271.367 458.196C270.887 458.676 270.647 459.33 270.647 460.158C270.647 460.986 270.887 461.64 271.367 462.12C271.847 462.6 272.453 462.84 273.185 462.84C274.145 462.84 274.871 462.396 275.363 461.508L277.541 462.696C277.193 463.464 276.635 464.064 275.867 464.496C275.111 464.928 274.223 465.144 273.203 465.144ZM279.087 451.644H281.895V465H279.087V451.644ZM288.407 455.172C289.907 455.172 291.059 455.532 291.863 456.252C292.667 456.96 293.069 458.034 293.069 459.474V465H290.441V463.794C289.913 464.694 288.929 465.144 287.489 465.144C286.745 465.144 286.097 465.018 285.545 464.766C285.005 464.514 284.591 464.166 284.303 463.722C284.015 463.278 283.871 462.774 283.871 462.21C283.871 461.31 284.207 460.602 284.879 460.086C285.563 459.57 286.613 459.312 288.029 459.312H290.261C290.261 458.7 290.075 458.232 289.703 457.908C289.331 457.572 288.773 457.404 288.029 457.404C287.513 457.404 287.003 457.488 286.499 457.656C286.007 457.812 285.587 458.028 285.239 458.304L284.231 456.342C284.759 455.97 285.389 455.682 286.121 455.478C286.865 455.274 287.627 455.172 288.407 455.172ZM288.191 463.254C288.671 463.254 289.097 463.146 289.469 462.93C289.841 462.702 290.105 462.372 290.261 461.94V460.95H288.335C287.183 460.95 286.607 461.328 286.607 462.084C286.607 462.444 286.745 462.732 287.021 462.948C287.309 463.152 287.699 463.254 288.191 463.254ZM298.292 456.594C298.628 456.126 299.078 455.772 299.642 455.532C300.218 455.292 300.878 455.172 301.622 455.172V457.764C301.31 457.74 301.1 457.728 300.992 457.728C300.188 457.728 299.558 457.956 299.102 458.412C298.646 458.856 298.418 459.528 298.418 460.428V465H295.61V455.316H298.292V456.594ZM307.145 455.172C308.645 455.172 309.797 455.532 310.601 456.252C311.405 456.96 311.807 458.034 311.807 459.474V465H309.179V463.794C308.651 464.694 307.667 465.144 306.227 465.144C305.483 465.144 304.835 465.018 304.283 464.766C303.743 464.514 303.329 464.166 303.041 463.722C302.753 463.278 302.609 462.774 302.609 462.21C302.609 461.31 302.945 460.602 303.617 460.086C304.301 459.57 305.351 459.312 306.767 459.312H308.999C308.999 458.7 308.813 458.232 308.441 457.908C308.069 457.572 307.511 457.404 306.767 457.404C306.251 457.404 305.741 457.488 305.237 457.656C304.745 457.812 304.325 458.028 303.977 458.304L302.969 456.342C303.497 455.97 304.127 455.682 304.859 455.478C305.603 455.274 306.365 455.172 307.145 455.172ZM306.929 463.254C307.409 463.254 307.835 463.146 308.207 462.93C308.579 462.702 308.843 462.372 308.999 461.94V460.95H307.073C305.921 460.95 305.345 461.328 305.345 462.084C305.345 462.444 305.483 462.732 305.759 462.948C306.047 463.152 306.437 463.254 306.929 463.254ZM320.595 464.532C320.319 464.736 319.977 464.892 319.569 465C319.173 465.096 318.753 465.144 318.309 465.144C317.157 465.144 316.263 464.85 315.627 464.262C315.003 463.674 314.691 462.81 314.691 461.67V457.692H313.197V455.532H314.691V453.174H317.499V455.532H319.911V457.692H317.499V461.634C317.499 462.042 317.601 462.36 317.805 462.588C318.021 462.804 318.321 462.912 318.705 462.912C319.149 462.912 319.527 462.792 319.839 462.552L320.595 464.532ZM322.171 455.316H324.979V465H322.171V455.316ZM323.575 453.966C323.059 453.966 322.639 453.816 322.315 453.516C321.991 453.216 321.829 452.844 321.829 452.4C321.829 451.956 321.991 451.584 322.315 451.284C322.639 450.984 323.059 450.834 323.575 450.834C324.091 450.834 324.511 450.978 324.835 451.266C325.159 451.554 325.321 451.914 325.321 452.346C325.321 452.814 325.159 453.204 324.835 453.516C324.511 453.816 324.091 453.966 323.575 453.966ZM332.193 465.144C331.173 465.144 330.255 464.934 329.439 464.514C328.635 464.082 328.005 463.488 327.549 462.732C327.093 461.976 326.865 461.118 326.865 460.158C326.865 459.198 327.093 458.34 327.549 457.584C328.005 456.828 328.635 456.24 329.439 455.82C330.255 455.388 331.173 455.172 332.193 455.172C333.213 455.172 334.125 455.388 334.929 455.82C335.733 456.24 336.363 456.828 336.819 457.584C337.275 458.34 337.503 459.198 337.503 460.158C337.503 461.118 337.275 461.976 336.819 462.732C336.363 463.488 335.733 464.082 334.929 464.514C334.125 464.934 333.213 465.144 332.193 465.144ZM332.193 462.84C332.913 462.84 333.501 462.6 333.957 462.12C334.425 461.628 334.659 460.974 334.659 460.158C334.659 459.342 334.425 458.694 333.957 458.214C333.501 457.722 332.913 457.476 332.193 457.476C331.473 457.476 330.879 457.722 330.411 458.214C329.943 458.694 329.709 459.342 329.709 460.158C329.709 460.974 329.943 461.628 330.411 462.12C330.879 462.6 331.473 462.84 332.193 462.84ZM345.266 455.172C346.466 455.172 347.432 455.532 348.164 456.252C348.908 456.972 349.28 458.04 349.28 459.456V465H346.472V459.888C346.472 459.12 346.304 458.55 345.968 458.178C345.632 457.794 345.146 457.602 344.51 457.602C343.802 457.602 343.238 457.824 342.818 458.268C342.398 458.7 342.188 459.348 342.188 460.212V465H339.38V455.316H342.062V456.45C342.434 456.042 342.896 455.73 343.448 455.514C344 455.286 344.606 455.172 345.266 455.172Z" fill="#828282"/>
<rect x="218" y="441" width="156" height="36" rx="3" stroke="#828282" stroke-width="2"/>
<path fill-rule="evenodd" clip-rule="evenodd" d="M296 396L452 396L452 394L141 394L141 396L294 396L294 440L296 440L296 396Z" fill="#828282"/>
</svg>
